<svg width="426" height="76" viewBox="0 0 426 76" xmlns="http://www.w3.org/2000/svg">
  <defs>
    <radialGradient id="dotGradient" cx="30%" cy="30%" r="70%" fx="30%" fy="30%">
      <stop offset="0%" stop-color="#1E6F5C" />
      <stop offset="100%" stop-color="#022C22" />
    </radialGradient>
  </defs>
<circle cx="24" cy="10" r="4" fill="url(#dotGradient)" /><circle cx="38" cy="10" r="4" fill="url(#dotGradient)" /><circle cx="52" cy="10" r="4" fill="url(#dotGradient)" /><circle cx="10" cy="24" r="4" fill="url(#dotGradient)" /><circle cx="10" cy="38" r="4" fill="url(#dotGradient)" /><circle cx="52" cy="38" r="4" fill="url(#dotGradient)" /><circle cx="66" cy="38" r="4" fill="url(#dotGradient)" /><circle cx="10" cy="52" r="4" fill="url(#dotGradient)" /><circle cx="66" cy="52" r="4" fill="url(#dotGradient)" /><circle cx="24" cy="66" r="4" fill="url(#dotGradient)" /><circle cx="38" cy="66" r="4" fill="url(#dotGradient)" /><circle cx="52" cy="66" r="4" fill="url(#dotGradient)" /><circle cx="94" cy="10" r="4" fill="url(#dotGradient)" /><circle cx="108" cy="10" r="4" fill="url(#dotGradient)" /><circle cx="122" cy="10" r="4" fill="url(#dotGradient)" /><circle cx="136" cy="10" r="4" fill="url(#dotGradient)" /><circle cx="94" cy="24" r="4" fill="url(#dotGradient)" /><circle cx="150" cy="24" r="4" fill="url(#dotGradient)" /><circle cx="94" cy="38" r="4" fill="url(#dotGradient)" /><circle cx="108" cy="38" r="4" fill="url(#dotGradient)" /><circle cx="122" cy="38" r="4" fill="url(#dotGradient)" /><circle cx="136" cy="38" r="4" fill="url(#dotGradient)" /><circle cx="94" cy="52" r="4" fill="url(#dotGradient)" /><circle cx="122" cy="52" r="4" fill="url(#dotGradient)" /><circle cx="94" cy="66" r="4" fill="url(#dotGradient)" /><circle cx="136" cy="66" r="4" fill="url(#dotGradient)" /><circle cx="192" cy="10" r="4" fill="url(#dotGradient)" /><circle cx="206" cy="10" r="4" fill="url(#dotGradient)" /><circle cx="220" cy="10" r="4" fill="url(#dotGradient)" /><circle cx="178" cy="24" r="4" fill="url(#dotGradient)" /><circle cx="234" cy="24" r="4" fill="url(#dotGradient)" /><circle cx="178" cy="38" r="4" fill="url(#dotGradient)" /><circle cx="234" cy="38" r="4" fill="url(#dotGradient)" /><circle cx="178" cy="52" r="4" fill="url(#dotGradient)" /><circle cx="234" cy="52" r="4" fill="url(#dotGradient)" /><circle cx="192" cy="66" r="4" fill="url(#dotGradient)" /><circle cx="206" cy="66" r="4" fill="url(#dotGradient)" /><circle cx="220" cy="66" r="4" fill="url(#dotGradient)" /><circle cx="276" cy="10" r="4" fill="url(#dotGradient)" /><circle cx="290" cy="10" r="4" fill="url(#dotGradient)" /><circle cx="304" cy="10" r="4" fill="url(#dotGradient)" /><circle cx="262" cy="24" r="4" fill="url(#dotGradient)" /><circle cx="318" cy="24" r="4" fill="url(#dotGradient)" /><circle cx="262" cy="38" r="4" fill="url(#dotGradient)" /><circle cx="318" cy="38" r="4" fill="url(#dotGradient)" /><circle cx="262" cy="52" r="4" fill="url(#dotGradient)" /><circle cx="318" cy="52" r="4" fill="url(#dotGradient)" /><circle cx="276" cy="66" r="4" fill="url(#dotGradient)" /><circle cx="290" cy="66" r="4" fill="url(#dotGradient)" /><circle cx="304" cy="66" r="4" fill="url(#dotGradient)" /><circle cx="346" cy="10" r="4" fill="url(#dotGradient)" /><circle cx="360" cy="10" r="4" fill="url(#dotGradient)" /><circle cx="374" cy="10" r="4" fill="url(#dotGradient)" /><circle cx="388" cy="10" r="4" fill="url(#dotGradient)" /><circle cx="402" cy="10" r="4" fill="url(#dotGradient)" /><circle cx="374" cy="24" r="4" fill="url(#dotGradient)" /><circle cx="374" cy="38" r="4" fill="url(#dotGradient)" /><circle cx="374" cy="52" r="4" fill="url(#dotGradient)" /><circle cx="374" cy="66" r="4" fill="url(#dotGradient)" /></svg>
