<?xml version="1.0" encoding="UTF-8"?>
<svg xmlns="http://www.w3.org/2000/svg" xmlns:xlink="http://www.w3.org/1999/xlink" width="466px" height="262px" viewBox="0 0 300 169" version="1.1">
<g id="surface1">
<path style=" stroke:none;fill-rule:evenodd;fill:rgb(17.254902%,20.392157%,17.254902%);fill-opacity:1;" d="M 201.890625 62.203125 C 200.65625 62.859375 200.53125 64.757812 201.660156 65.609375 C 202.28125 66.074219 205.46875 66.140625 206.113281 65.699219 C 207.484375 64.765625 207.378906 62.75 205.925781 62.140625 C 205.269531 61.867188 202.4375 61.910156 201.890625 62.203125 M 201.9375 66.785156 C 200.539062 67.488281 200.488281 69.472656 201.847656 70.265625 C 202.375 70.574219 205.328125 70.609375 206.03125 70.3125 C 207.394531 69.742188 207.449219 67.472656 206.117188 66.78125 C 205.5 66.460938 202.578125 66.464844 201.9375 66.785156 M 104.136719 71.328125 C 102.777344 72.011719 102.769531 74.109375 104.125 74.828125 C 104.964844 75.269531 112.226562 75.269531 112.882812 74.828125 C 114.230469 73.917969 114.199219 71.960938 112.828125 71.308594 C 112.171875 70.996094 104.765625 71.015625 104.136719 71.328125 M 117.820312 71.3125 C 116.34375 72.113281 116.394531 74.316406 117.902344 74.921875 C 118.628906 75.210938 121.148438 75.179688 121.824219 74.871094 C 123.296875 74.203125 123.375 72.214844 121.964844 71.351562 C 121.425781 71.023438 118.410156 70.996094 117.820312 71.3125 M 127 71.367188 C 125.699219 72.132812 125.65625 73.851562 126.914062 74.785156 C 127.414062 75.15625 134.953125 75.261719 135.699219 74.910156 C 137.125 74.230469 137.105469 71.894531 135.671875 71.292969 C 134.878906 70.960938 127.585938 71.023438 127 71.367188 M 139.285156 71.441406 C 137.992188 72.277344 138.164062 74.347656 139.574219 74.9375 C 140.222656 75.207031 142.984375 75.175781 143.546875 74.890625 C 144.726562 74.292969 144.984375 72.503906 144.015625 71.605469 C 143.324219 70.960938 140.1875 70.851562 139.285156 71.441406 M 152.089844 71.367188 C 150.742188 72.082031 150.773438 74.085938 152.148438 74.859375 C 152.859375 75.261719 164.804688 75.199219 165.5 74.792969 C 166.644531 74.121094 166.699219 72.246094 165.59375 71.460938 L 165.1875 71.167969 L 158.875 71.140625 C 152.757812 71.113281 152.546875 71.121094 152.089844 71.367188 M 177.929688 71.28125 C 176.375 71.964844 176.398438 74.269531 177.96875 74.929688 C 178.660156 75.21875 190.339844 75.199219 190.957031 74.90625 C 192.351562 74.242188 192.484375 72.382812 191.203125 71.425781 C 190.761719 71.09375 178.652344 70.960938 177.929688 71.28125 M 197.242188 71.386719 C 195.949219 72.242188 196.039062 74.160156 197.402344 74.871094 C 198.121094 75.246094 214.378906 75.246094 215.097656 74.871094 C 216.089844 74.351562 216.476562 73.199219 215.976562 72.238281 C 215.375 71.082031 216.152344 71.171875 206.324219 71.132812 L 197.667969 71.101562 L 197.242188 71.386719 M 99.8125 75.761719 C 98.28125 76.300781 98.078125 78.550781 99.484375 79.34375 C 100.195312 79.742188 103.1875 79.753906 103.824219 79.359375 C 105.128906 78.550781 105.066406 76.53125 103.714844 75.875 C 103.105469 75.578125 100.546875 75.503906 99.8125 75.761719 M 113.4375 75.789062 C 111.777344 76.519531 111.761719 78.859375 113.414062 79.484375 C 113.636719 79.566406 115.234375 79.617188 117.730469 79.617188 L 121.691406 79.617188 L 122.160156 79.230469 C 123.382812 78.222656 123.210938 76.480469 121.824219 75.851562 C 121.164062 75.550781 114.097656 75.496094 113.4375 75.789062 M 126.984375 75.777344 C 125.4375 76.355469 125.183594 79.503906 126.613281 80.460938 C 127.460938 81.027344 128.996094 80.765625 129.5625 79.953125 C 129.824219 79.582031 129.828125 77 129.566406 76.5 C 129.21875 75.824219 127.871094 75.449219 126.984375 75.777344 M 135.050781 75.800781 C 133.539062 76.472656 133.433594 78.621094 134.875 79.386719 C 135.585938 79.765625 143.089844 79.738281 143.707031 79.355469 C 144.917969 78.605469 144.917969 76.832031 143.710938 75.9375 C 143.257812 75.597656 135.765625 75.480469 135.050781 75.800781 M 147.621094 75.894531 C 146.226562 76.597656 146.175781 78.628906 147.527344 79.40625 C 148.085938 79.726562 151.140625 79.714844 151.75 79.386719 C 153.164062 78.625 153.085938 76.503906 151.613281 75.871094 C 150.714844 75.480469 148.410156 75.496094 147.621094 75.894531 M 165.894531 75.804688 C 164.410156 76.449219 164.328125 78.695312 165.761719 79.433594 C 166.378906 79.757812 169.601562 79.652344 170.078125 79.296875 C 171.453125 78.265625 171.207031 76.28125 169.636719 75.753906 C 169.011719 75.542969 166.410156 75.578125 165.894531 75.804688 M 173.386719 75.804688 C 171.902344 76.449219 171.832031 78.695312 173.269531 79.441406 C 173.878906 79.757812 177.105469 79.648438 177.578125 79.296875 C 178.847656 78.34375 178.746094 76.582031 177.378906 75.894531 C 176.683594 75.542969 174.121094 75.488281 173.386719 75.804688 M 191.5 75.855469 C 190.117188 76.585938 190.011719 78.5 191.308594 79.335938 C 191.894531 79.710938 195.023438 79.765625 195.597656 79.40625 C 197.078125 78.484375 196.960938 76.449219 195.390625 75.789062 C 194.726562 75.507812 192.066406 75.554688 191.5 75.855469 M 202.125 75.753906 C 200.546875 76.382812 200.421875 78.476562 201.902344 79.40625 C 202.472656 79.765625 205.605469 79.714844 206.191406 79.335938 C 207.535156 78.46875 207.386719 76.5625 205.914062 75.816406 C 205.453125 75.582031 202.667969 75.535156 202.125 75.753906 M 101.25 80.242188 C 99.15625 80.328125 98.328125 80.992188 98.554688 82.40625 C 98.78125 83.84375 99.386719 84.1875 101.6875 84.1875 C 104.148438 84.1875 104.847656 83.679688 104.726562 81.980469 C 104.617188 80.511719 103.875 80.136719 101.25 80.242188 M 118.097656 80.328125 C 116.484375 80.804688 116.238281 82.863281 117.664062 83.925781 C 118.210938 84.328125 121.351562 84.320312 122.003906 83.910156 C 123.472656 83 123.183594 80.601562 121.570312 80.300781 C 120.835938 80.160156 118.597656 80.179688 118.097656 80.328125 M 149.238281 80.242188 C 147.589844 80.308594 147.503906 80.335938 146.914062 80.996094 C 146.230469 81.765625 146.484375 83.234375 147.410156 83.847656 C 148.117188 84.316406 151.234375 84.371094 151.835938 83.925781 C 152.957031 83.089844 153.085938 81.574219 152.105469 80.65625 C 151.6875 80.265625 151.03125 80.171875 149.238281 80.242188 M 166.234375 80.261719 C 164.664062 80.589844 164.179688 82.734375 165.453125 83.738281 C 166.253906 84.371094 169.117188 84.460938 170.046875 83.886719 C 171.210938 83.164062 171.269531 81.371094 170.15625 80.558594 C 169.789062 80.289062 167.085938 80.085938 166.234375 80.261719 M 173.78125 80.253906 C 171.722656 80.6875 171.699219 83.570312 173.753906 84.125 C 174.722656 84.386719 176.96875 84.246094 177.546875 83.886719 C 178.710938 83.164062 178.769531 81.371094 177.65625 80.558594 C 177.296875 80.296875 174.589844 80.082031 173.78125 80.253906 M 193.125 80.242188 C 191.332031 80.316406 191.046875 80.4375 190.632812 81.296875 C 189.621094 83.378906 191.679688 84.722656 195.035156 84.167969 C 196.582031 83.914062 197.195312 81.765625 196.023438 80.703125 C 195.582031 80.300781 194.792969 80.175781 193.125 80.242188 M 202.222656 80.328125 C 200.335938 80.886719 200.414062 83.582031 202.332031 84.113281 C 202.945312 84.285156 205.042969 84.289062 205.648438 84.121094 C 207.238281 83.675781 207.628906 81.375 206.25 80.5625 C 205.707031 80.242188 203.027344 80.085938 202.222656 80.328125 M 139.320312 80.488281 C 138.121094 81.28125 138.09375 82.996094 139.269531 83.875 C 139.945312 84.378906 143.113281 84.355469 143.789062 83.835938 C 144.925781 82.96875 144.914062 81.328125 143.765625 80.550781 C 143.144531 80.125 139.933594 80.082031 139.320312 80.488281 M 99.671875 84.929688 C 98.117188 85.609375 98.21875 88.0625 99.824219 88.609375 C 100.585938 88.867188 103.457031 88.765625 103.902344 88.460938 C 105.125 87.636719 105.070312 85.75 103.804688 85.035156 C 103.203125 84.691406 100.378906 84.621094 99.671875 84.929688 M 113.5 84.839844 C 111.976562 85.414062 111.707031 87.457031 113.027344 88.402344 C 113.59375 88.804688 121.027344 88.933594 121.824219 88.554688 C 123.351562 87.828125 123.335938 85.566406 121.800781 84.925781 C 121.378906 84.746094 113.945312 84.671875 113.5 84.839844 M 139.414062 85.011719 C 138.101562 85.660156 138.035156 87.5 139.289062 88.433594 C 139.816406 88.820312 143.253906 88.828125 143.773438 88.441406 C 144.976562 87.542969 144.867188 85.566406 143.578125 84.953125 C 142.890625 84.625 140.109375 84.664062 139.414062 85.011719 M 147.6875 84.921875 C 146.148438 85.625 146.148438 87.828125 147.691406 88.5625 C 148.390625 88.894531 151.0625 88.835938 151.75 88.472656 C 152.996094 87.808594 153.113281 85.980469 151.964844 85.113281 C 151.46875 84.742188 148.386719 84.601562 147.6875 84.921875 M 165.929688 84.871094 C 164.210938 85.566406 164.410156 88.367188 166.199219 88.703125 C 169.660156 89.355469 172.195312 87.46875 170.53125 85.484375 C 169.960938 84.808594 167.042969 84.417969 165.929688 84.871094 M 173.527344 84.851562 C 172.140625 85.269531 171.773438 87.3125 172.910156 88.285156 C 173.699219 88.964844 176.878906 88.976562 177.707031 88.304688 C 178.789062 87.433594 178.726562 85.933594 177.578125 85.070312 C 177.21875 84.800781 174.230469 84.640625 173.527344 84.851562 M 191.425781 85.003906 C 190.117188 85.652344 190.050781 87.5 191.296875 88.4375 C 191.824219 88.828125 195.179688 88.828125 195.710938 88.433594 C 196.953125 87.511719 196.90625 85.664062 195.628906 84.980469 C 194.964844 84.628906 192.152344 84.644531 191.425781 85.003906 M 201.871094 84.980469 C 200.59375 85.664062 200.546875 87.511719 201.789062 88.433594 C 202.320312 88.828125 205.675781 88.828125 206.203125 88.4375 C 207.457031 87.496094 207.382812 85.640625 206.0625 85 C 205.328125 84.644531 202.53125 84.632812 201.871094 84.980469 M 215.8125 84.839844 C 214.214844 85.269531 214.058594 87.777344 215.582031 88.515625 C 216.355469 88.890625 219.292969 88.835938 219.828125 88.4375 C 220.988281 87.566406 221.0625 86.199219 220.003906 85.1875 L 219.609375 84.8125 L 217.835938 84.792969 C 216.859375 84.78125 215.949219 84.800781 215.8125 84.839844 M 104.25 89.535156 C 102.855469 90.246094 102.714844 92.125 103.996094 92.984375 L 104.425781 93.273438 L 108.554688 93.234375 C 112.625 93.199219 112.695312 93.195312 113.085938 92.914062 C 114.160156 92.148438 114.140625 90.511719 113.054688 89.679688 L 112.582031 89.320312 L 108.699219 89.285156 C 104.863281 89.25 104.804688 89.25 104.25 89.535156 M 118.078125 89.378906 C 116.527344 89.875 116.265625 92.152344 117.65625 93.019531 C 118.25 93.390625 121.625 93.339844 122.15625 92.949219 C 123.277344 92.128906 123.214844 90.34375 122.035156 89.558594 C 121.640625 89.296875 118.746094 89.164062 118.078125 89.378906 M 139.550781 89.488281 C 138.027344 90.203125 138.023438 92.578125 139.550781 93.132812 C 140.160156 93.351562 143.074219 93.296875 143.582031 93.058594 C 144.921875 92.421875 144.992188 90.535156 143.714844 89.585938 C 143.195312 89.199219 140.308594 89.132812 139.550781 89.488281 M 152.476562 89.378906 C 151.070312 89.8125 150.609375 91.589844 151.617188 92.671875 L 152.105469 93.199219 L 158.59375 93.234375 L 165.078125 93.269531 L 165.5 92.984375 C 166.730469 92.15625 166.695312 90.320312 165.4375 89.550781 C 165.027344 89.300781 153.234375 89.144531 152.476562 89.378906 M 178.1875 89.347656 C 176.542969 89.777344 176.292969 92.34375 177.828125 93.074219 C 178.433594 93.363281 190.460938 93.355469 191.042969 93.066406 C 192.40625 92.390625 192.46875 90.621094 191.167969 89.59375 C 190.828125 89.328125 179.109375 89.105469 178.1875 89.347656 M 206.851562 89.34375 C 205.457031 89.570312 204.9375 91.660156 206.015625 92.714844 L 206.511719 93.199219 L 210.667969 93.234375 C 214.824219 93.273438 214.824219 93.273438 215.257812 92.984375 C 216.488281 92.164062 216.496094 90.367188 215.273438 89.605469 C 214.828125 89.332031 208.203125 89.125 206.851562 89.34375 M 117.65625 94.136719 C 116.199219 95.027344 116.535156 97.304688 118.1875 97.757812 C 121.222656 98.585938 123.648438 97.144531 122.796875 95.015625 C 122.363281 93.921875 118.957031 93.34375 117.65625 94.136719 M 148.5 101.148438 L 148.5 105.28125 L 149.875 105.28125 L 149.875 97.019531 L 148.5 97.019531 L 148.5 101.148438 M 161.375 97.769531 L 161.375 98.519531 L 162.75 98.519531 L 162.75 97.019531 L 161.375 97.019531 L 161.375 97.769531 M 130.488281 97.613281 C 130.414062 97.800781 130.285156 98.15625 130.195312 98.394531 C 129.804688 99.480469 129.101562 101.367188 128.980469 101.648438 C 128.90625 101.824219 128.746094 102.246094 128.625 102.589844 C 128.5 102.933594 128.226562 103.679688 128.015625 104.25 L 127.632812 105.28125 L 129.082031 105.28125 L 129.429688 104.277344 L 129.78125 103.269531 L 131.539062 103.304688 L 133.292969 103.339844 L 133.632812 104.277344 L 133.972656 105.21875 L 134.671875 105.253906 C 135.492188 105.300781 135.480469 105.339844 135.007812 104.070312 C 134.808594 103.53125 134.210938 101.90625 133.683594 100.460938 C 133.328125 99.488281 132.972656 98.519531 132.613281 97.550781 C 132.429688 97.074219 130.671875 97.125 130.488281 97.613281 M 157.625 98.332031 L 157.625 99.019531 L 156.75 99.019531 L 156.75 100.273438 L 157.628906 100.273438 L 157.621094 102.121094 C 157.601562 104.808594 157.960938 105.40625 159.578125 105.402344 C 160.792969 105.402344 160.875 105.351562 160.875 104.625 C 160.875 104.039062 160.859375 104.003906 160.59375 104.078125 C 159.058594 104.5 158.875 104.273438 158.875 101.945312 L 158.875 100.273438 L 160.875 100.273438 L 160.875 99.019531 L 158.875 99.019531 L 158.875 97.644531 L 157.625 97.644531 L 157.625 98.332031 M 118.3125 98.355469 C 116.648438 98.628906 116.183594 101.039062 117.613281 101.992188 C 118.171875 102.363281 121.230469 102.421875 121.90625 102.070312 C 122.546875 101.753906 122.960938 101.109375 122.988281 100.394531 C 123.019531 99.675781 122.65625 99.003906 122.042969 98.632812 C 121.570312 98.34375 119.386719 98.179688 118.3125 98.355469 M 132.183594 100.316406 C 132.871094 102.214844 132.941406 102.042969 131.460938 102 L 130.265625 101.964844 L 130.769531 100.648438 C 131.042969 99.925781 131.328125 99.175781 131.402344 98.984375 C 131.566406 98.546875 131.503906 98.4375 132.183594 100.316406 M 138.183594 99.070312 C 137.976562 99.160156 137.625 99.441406 137.402344 99.695312 L 137 100.15625 L 137 99.019531 L 135.75 99.019531 L 135.75 105.28125 L 137 105.28125 L 137 103.496094 C 137 100.894531 137.253906 100.3125 138.425781 100.179688 C 139.847656 100.019531 140.125 100.53125 140.125 103.28125 L 140.125 105.28125 L 141.527344 105.28125 L 141.46875 103.058594 C 141.40625 100.6875 141.308594 100.195312 140.765625 99.605469 C 140.121094 98.902344 139.066406 98.6875 138.183594 99.070312 M 143.730469 99.0625 C 142.808594 99.359375 142.125 100.191406 142.125 101.019531 C 142.125 101.605469 143.339844 101.613281 143.453125 101.03125 C 143.742188 99.585938 146.625 100.015625 146.625 101.507812 C 146.625 101.570312 145.847656 101.644531 144.894531 101.667969 C 142.929688 101.722656 142.453125 101.925781 142.054688 102.878906 C 141.175781 104.976562 144.402344 106.398438 146.15625 104.6875 L 146.625 104.230469 L 146.625 105.28125 L 147.875 105.28125 L 147.875 103.167969 C 147.875 100.527344 147.839844 100.351562 147.179688 99.710938 C 146.382812 98.933594 144.960938 98.667969 143.730469 99.0625 M 165.0625 99.132812 C 162.566406 100.277344 162.742188 104.5625 165.316406 105.28125 C 167.210938 105.8125 168.800781 104.949219 169.183594 103.183594 L 169.269531 102.777344 L 168.597656 102.777344 C 167.945312 102.777344 167.921875 102.789062 167.769531 103.210938 C 167.464844 104.058594 166.5625 104.449219 165.730469 104.101562 C 164.429688 103.554688 164.214844 101.4375 165.359375 100.417969 C 166.074219 99.78125 167.617188 100.25 167.816406 101.164062 C 167.890625 101.507812 167.925781 101.527344 168.582031 101.527344 L 169.269531 101.527344 L 169.183594 101.125 C 168.792969 99.34375 166.75 98.355469 165.0625 99.132812 M 171.0625 99.042969 C 169.808594 99.507812 169.28125 100.644531 169.871094 101.617188 C 170.171875 102.109375 170.703125 102.34375 172.222656 102.65625 C 173.609375 102.945312 173.875 103.070312 173.875 103.4375 C 173.867188 104.511719 171.132812 104.601562 170.917969 103.535156 C 170.847656 103.164062 170.820312 103.152344 170.15625 103.152344 L 169.46875 103.152344 L 169.542969 103.609375 C 169.910156 105.875 174.625 106.203125 175.117188 103.996094 C 175.433594 102.589844 174.785156 101.953125 172.609375 101.523438 C 171.269531 101.257812 171 101.132812 171 100.777344 C 171 99.894531 173.183594 99.8125 173.597656 100.679688 C 173.804688 101.113281 175 101.214844 175 100.800781 C 175 99.441406 172.722656 98.425781 171.0625 99.042969 M 150.25 99.140625 C 150.25 99.246094 150.570312 100.09375 152.152344 104.15625 C 152.671875 105.484375 152.667969 105.445312 152.375 105.8125 C 152.082031 106.1875 151.449219 106.410156 150.953125 106.316406 C 150.632812 106.253906 150.625 106.269531 150.625 106.910156 L 150.625 107.566406 L 151.433594 107.503906 C 153.078125 107.371094 153.460938 106.929688 154.683594 103.777344 C 155.707031 101.128906 156.335938 99.488281 156.417969 99.242188 C 156.480469 99.050781 156.40625 99.019531 155.824219 99.019531 L 155.160156 99.019531 L 154.773438 100.054688 C 154.566406 100.621094 154.269531 101.398438 154.125 101.777344 C 153.984375 102.128906 153.859375 102.484375 153.742188 102.84375 C 153.390625 104.019531 153.324219 103.917969 151.972656 100.117188 L 151.582031 99.019531 L 150.914062 99.019531 C 150.550781 99.019531 150.25 99.074219 150.25 99.140625 M 161.5 102.152344 L 161.5 105.28125 L 162.75 105.28125 L 162.75 99.019531 L 161.5 99.019531 L 161.5 102.152344 M 104.523438 103.023438 C 103.246094 103.949219 103.367188 105.847656 104.742188 106.464844 C 105.511719 106.8125 117.597656 106.695312 118.078125 106.335938 C 119.351562 105.382812 119.246094 103.601562 117.871094 102.898438 C 117.40625 102.664062 117.113281 102.652344 111.210938 102.652344 L 105.039062 102.652344 L 104.523438 103.023438 M 146.625 102.835938 C 146.625 103.613281 145.714844 104.214844 144.542969 104.214844 C 143.414062 104.214844 142.796875 103.484375 143.507812 102.984375 C 143.765625 102.808594 146.625 102.671875 146.625 102.835938 "/>
<path style=" stroke:none;fill-rule:evenodd;fill:rgb(18.82353%,20.392157%,17.254902%);fill-opacity:1;" d="M 203.34375 66.566406 C 203.703125 66.589844 204.296875 66.589844 204.65625 66.566406 C 205.015625 66.539062 204.722656 66.519531 204 66.519531 C 203.277344 66.519531 202.984375 66.539062 203.34375 66.566406 M 203.410156 70.570312 C 203.808594 70.597656 204.425781 70.597656 204.785156 70.570312 C 205.144531 70.546875 204.820312 70.527344 204.0625 70.527344 C 203.304688 70.527344 203.011719 70.546875 203.410156 70.570312 M 101.03125 80.210938 C 101.359375 80.238281 101.890625 80.238281 102.21875 80.210938 C 102.546875 80.183594 102.277344 80.164062 101.625 80.164062 C 100.972656 80.164062 100.703125 80.183594 101.03125 80.210938 M 119.28125 80.210938 C 119.609375 80.238281 120.140625 80.238281 120.46875 80.210938 C 120.796875 80.183594 120.527344 80.164062 119.875 80.164062 C 119.222656 80.164062 118.953125 80.183594 119.28125 80.210938 M 140.84375 80.210938 C 141.28125 80.234375 141.71875 80.234375 142.15625 80.210938 C 142.515625 80.1875 142.222656 80.164062 141.5 80.164062 C 140.777344 80.164062 140.484375 80.1875 140.84375 80.210938 M 149.03125 80.210938 C 149.359375 80.238281 149.890625 80.238281 150.21875 80.210938 C 150.546875 80.183594 150.277344 80.164062 149.625 80.164062 C 148.972656 80.164062 148.703125 80.183594 149.03125 80.210938 M 167.28125 80.210938 C 167.609375 80.238281 168.140625 80.238281 168.46875 80.210938 C 168.796875 80.183594 168.527344 80.164062 167.875 80.164062 C 167.222656 80.164062 166.953125 80.183594 167.28125 80.210938 M 174.78125 80.210938 C 175.109375 80.238281 175.640625 80.238281 175.96875 80.210938 C 176.296875 80.183594 176.027344 80.164062 175.375 80.164062 C 174.722656 80.164062 174.453125 80.183594 174.78125 80.210938 M 192.90625 80.210938 C 193.234375 80.238281 193.765625 80.238281 194.09375 80.210938 C 194.421875 80.183594 194.152344 80.164062 193.5 80.164062 C 192.847656 80.164062 192.578125 80.183594 192.90625 80.210938 M 203.40625 80.210938 C 203.734375 80.238281 204.265625 80.238281 204.59375 80.210938 C 204.921875 80.183594 204.652344 80.164062 204 80.164062 C 203.347656 80.164062 203.078125 80.183594 203.40625 80.210938 M 157.539062 98.332031 C 157.539062 98.746094 157.5625 98.898438 157.589844 98.675781 C 157.617188 98.449219 157.617188 98.113281 157.589844 97.925781 C 157.5625 97.734375 157.539062 97.921875 157.539062 98.332031 M 157.546875 101.777344 C 157.546875 102.636719 157.566406 102.988281 157.59375 102.558594 C 157.617188 102.128906 157.617188 101.421875 157.59375 100.992188 C 157.566406 100.5625 157.546875 100.914062 157.546875 101.777344 M 119.160156 102.367188 C 119.558594 102.394531 120.179688 102.394531 120.535156 102.367188 C 120.894531 102.34375 120.570312 102.324219 119.8125 102.324219 C 119.054688 102.324219 118.761719 102.34375 119.160156 102.367188 "/>
<path style=" stroke:none;fill-rule:evenodd;fill:rgb(18.82353%,20.392157%,17.254902%);fill-opacity:1;" d="M 203.34375 66.566406 C 203.703125 66.589844 204.296875 66.589844 204.65625 66.566406 C 205.015625 66.539062 204.722656 66.519531 204 66.519531 C 203.277344 66.519531 202.984375 66.539062 203.34375 66.566406 M 203.410156 70.570312 C 203.808594 70.597656 204.425781 70.597656 204.785156 70.570312 C 205.144531 70.546875 204.820312 70.527344 204.0625 70.527344 C 203.304688 70.527344 203.011719 70.546875 203.410156 70.570312 M 101.03125 80.210938 C 101.359375 80.238281 101.890625 80.238281 102.21875 80.210938 C 102.546875 80.183594 102.277344 80.164062 101.625 80.164062 C 100.972656 80.164062 100.703125 80.183594 101.03125 80.210938 M 119.28125 80.210938 C 119.609375 80.238281 120.140625 80.238281 120.46875 80.210938 C 120.796875 80.183594 120.527344 80.164062 119.875 80.164062 C 119.222656 80.164062 118.953125 80.183594 119.28125 80.210938 M 140.84375 80.210938 C 141.28125 80.234375 141.71875 80.234375 142.15625 80.210938 C 142.515625 80.1875 142.222656 80.164062 141.5 80.164062 C 140.777344 80.164062 140.484375 80.1875 140.84375 80.210938 M 149.03125 80.210938 C 149.359375 80.238281 149.890625 80.238281 150.21875 80.210938 C 150.546875 80.183594 150.277344 80.164062 149.625 80.164062 C 148.972656 80.164062 148.703125 80.183594 149.03125 80.210938 M 167.28125 80.210938 C 167.609375 80.238281 168.140625 80.238281 168.46875 80.210938 C 168.796875 80.183594 168.527344 80.164062 167.875 80.164062 C 167.222656 80.164062 166.953125 80.183594 167.28125 80.210938 M 174.78125 80.210938 C 175.109375 80.238281 175.640625 80.238281 175.96875 80.210938 C 176.296875 80.183594 176.027344 80.164062 175.375 80.164062 C 174.722656 80.164062 174.453125 80.183594 174.78125 80.210938 M 192.90625 80.210938 C 193.234375 80.238281 193.765625 80.238281 194.09375 80.210938 C 194.421875 80.183594 194.152344 80.164062 193.5 80.164062 C 192.847656 80.164062 192.578125 80.183594 192.90625 80.210938 M 203.40625 80.210938 C 203.734375 80.238281 204.265625 80.238281 204.59375 80.210938 C 204.921875 80.183594 204.652344 80.164062 204 80.164062 C 203.347656 80.164062 203.078125 80.183594 203.40625 80.210938 M 157.539062 98.332031 C 157.539062 98.746094 157.5625 98.898438 157.589844 98.675781 C 157.617188 98.449219 157.617188 98.113281 157.589844 97.925781 C 157.5625 97.734375 157.539062 97.921875 157.539062 98.332031 M 157.546875 101.777344 C 157.546875 102.636719 157.566406 102.988281 157.59375 102.558594 C 157.617188 102.128906 157.617188 101.421875 157.59375 100.992188 C 157.566406 100.5625 157.546875 100.914062 157.546875 101.777344 M 119.160156 102.367188 C 119.558594 102.394531 120.179688 102.394531 120.535156 102.367188 C 120.894531 102.34375 120.570312 102.324219 119.8125 102.324219 C 119.054688 102.324219 118.761719 102.34375 119.160156 102.367188 "/>
<path style=" stroke:none;fill-rule:evenodd;fill:rgb(18.82353%,20.392157%,17.254902%);fill-opacity:1;" d="M 203.34375 66.566406 C 203.703125 66.589844 204.296875 66.589844 204.65625 66.566406 C 205.015625 66.539062 204.722656 66.519531 204 66.519531 C 203.277344 66.519531 202.984375 66.539062 203.34375 66.566406 M 203.410156 70.570312 C 203.808594 70.597656 204.425781 70.597656 204.785156 70.570312 C 205.144531 70.546875 204.820312 70.527344 204.0625 70.527344 C 203.304688 70.527344 203.011719 70.546875 203.410156 70.570312 M 101.03125 80.210938 C 101.359375 80.238281 101.890625 80.238281 102.21875 80.210938 C 102.546875 80.183594 102.277344 80.164062 101.625 80.164062 C 100.972656 80.164062 100.703125 80.183594 101.03125 80.210938 M 119.28125 80.210938 C 119.609375 80.238281 120.140625 80.238281 120.46875 80.210938 C 120.796875 80.183594 120.527344 80.164062 119.875 80.164062 C 119.222656 80.164062 118.953125 80.183594 119.28125 80.210938 M 140.84375 80.210938 C 141.28125 80.234375 141.71875 80.234375 142.15625 80.210938 C 142.515625 80.1875 142.222656 80.164062 141.5 80.164062 C 140.777344 80.164062 140.484375 80.1875 140.84375 80.210938 M 149.03125 80.210938 C 149.359375 80.238281 149.890625 80.238281 150.21875 80.210938 C 150.546875 80.183594 150.277344 80.164062 149.625 80.164062 C 148.972656 80.164062 148.703125 80.183594 149.03125 80.210938 M 167.28125 80.210938 C 167.609375 80.238281 168.140625 80.238281 168.46875 80.210938 C 168.796875 80.183594 168.527344 80.164062 167.875 80.164062 C 167.222656 80.164062 166.953125 80.183594 167.28125 80.210938 M 174.78125 80.210938 C 175.109375 80.238281 175.640625 80.238281 175.96875 80.210938 C 176.296875 80.183594 176.027344 80.164062 175.375 80.164062 C 174.722656 80.164062 174.453125 80.183594 174.78125 80.210938 M 192.90625 80.210938 C 193.234375 80.238281 193.765625 80.238281 194.09375 80.210938 C 194.421875 80.183594 194.152344 80.164062 193.5 80.164062 C 192.847656 80.164062 192.578125 80.183594 192.90625 80.210938 M 203.40625 80.210938 C 203.734375 80.238281 204.265625 80.238281 204.59375 80.210938 C 204.921875 80.183594 204.652344 80.164062 204 80.164062 C 203.347656 80.164062 203.078125 80.183594 203.40625 80.210938 M 157.539062 98.332031 C 157.539062 98.746094 157.5625 98.898438 157.589844 98.675781 C 157.617188 98.449219 157.617188 98.113281 157.589844 97.925781 C 157.5625 97.734375 157.539062 97.921875 157.539062 98.332031 M 157.546875 101.777344 C 157.546875 102.636719 157.566406 102.988281 157.59375 102.558594 C 157.617188 102.128906 157.617188 101.421875 157.59375 100.992188 C 157.566406 100.5625 157.546875 100.914062 157.546875 101.777344 M 119.160156 102.367188 C 119.558594 102.394531 120.179688 102.394531 120.535156 102.367188 C 120.894531 102.34375 120.570312 102.324219 119.8125 102.324219 C 119.054688 102.324219 118.761719 102.34375 119.160156 102.367188 "/>
<path style=" stroke:none;fill-rule:evenodd;fill:rgb(18.82353%,20.392157%,17.254902%);fill-opacity:1;" d="M 203.34375 66.566406 C 203.703125 66.589844 204.296875 66.589844 204.65625 66.566406 C 205.015625 66.539062 204.722656 66.519531 204 66.519531 C 203.277344 66.519531 202.984375 66.539062 203.34375 66.566406 M 203.410156 70.570312 C 203.808594 70.597656 204.425781 70.597656 204.785156 70.570312 C 205.144531 70.546875 204.820312 70.527344 204.0625 70.527344 C 203.304688 70.527344 203.011719 70.546875 203.410156 70.570312 M 101.03125 80.210938 C 101.359375 80.238281 101.890625 80.238281 102.21875 80.210938 C 102.546875 80.183594 102.277344 80.164062 101.625 80.164062 C 100.972656 80.164062 100.703125 80.183594 101.03125 80.210938 M 119.28125 80.210938 C 119.609375 80.238281 120.140625 80.238281 120.46875 80.210938 C 120.796875 80.183594 120.527344 80.164062 119.875 80.164062 C 119.222656 80.164062 118.953125 80.183594 119.28125 80.210938 M 140.84375 80.210938 C 141.28125 80.234375 141.71875 80.234375 142.15625 80.210938 C 142.515625 80.1875 142.222656 80.164062 141.5 80.164062 C 140.777344 80.164062 140.484375 80.1875 140.84375 80.210938 M 149.03125 80.210938 C 149.359375 80.238281 149.890625 80.238281 150.21875 80.210938 C 150.546875 80.183594 150.277344 80.164062 149.625 80.164062 C 148.972656 80.164062 148.703125 80.183594 149.03125 80.210938 M 167.28125 80.210938 C 167.609375 80.238281 168.140625 80.238281 168.46875 80.210938 C 168.796875 80.183594 168.527344 80.164062 167.875 80.164062 C 167.222656 80.164062 166.953125 80.183594 167.28125 80.210938 M 174.78125 80.210938 C 175.109375 80.238281 175.640625 80.238281 175.96875 80.210938 C 176.296875 80.183594 176.027344 80.164062 175.375 80.164062 C 174.722656 80.164062 174.453125 80.183594 174.78125 80.210938 M 192.90625 80.210938 C 193.234375 80.238281 193.765625 80.238281 194.09375 80.210938 C 194.421875 80.183594 194.152344 80.164062 193.5 80.164062 C 192.847656 80.164062 192.578125 80.183594 192.90625 80.210938 M 203.40625 80.210938 C 203.734375 80.238281 204.265625 80.238281 204.59375 80.210938 C 204.921875 80.183594 204.652344 80.164062 204 80.164062 C 203.347656 80.164062 203.078125 80.183594 203.40625 80.210938 M 157.539062 98.332031 C 157.539062 98.746094 157.5625 98.898438 157.589844 98.675781 C 157.617188 98.449219 157.617188 98.113281 157.589844 97.925781 C 157.5625 97.734375 157.539062 97.921875 157.539062 98.332031 M 157.546875 101.777344 C 157.546875 102.636719 157.566406 102.988281 157.59375 102.558594 C 157.617188 102.128906 157.617188 101.421875 157.59375 100.992188 C 157.566406 100.5625 157.546875 100.914062 157.546875 101.777344 M 119.160156 102.367188 C 119.558594 102.394531 120.179688 102.394531 120.535156 102.367188 C 120.894531 102.34375 120.570312 102.324219 119.8125 102.324219 C 119.054688 102.324219 118.761719 102.34375 119.160156 102.367188 "/>
</g>
</svg>
