<svg xmlns="http://www.w3.org/2000/svg" width="400" height="225"><g fill-rule="evenodd"><path d="M269.187 82.814c-1.643.875-1.813 3.403-.306 4.534.826.62 5.077.707 5.937.122 1.83-1.246 1.688-3.927-.251-4.738-.875-.365-4.648-.308-5.38.082m.064 6.103c-1.864.934-1.934 3.575-.123 4.633.703.41 4.642.454 5.58.061 1.819-.759 1.891-3.781.113-4.701-.82-.424-4.719-.419-5.57.007m-130.403 6.049c-1.812.905-1.82 3.699-.013 4.655 1.119.591 10.801.591 11.678 0 1.795-1.209 1.752-3.816-.077-4.684-.872-.414-10.75-.389-11.588.029m18.248-.022c-1.97 1.067-1.904 3.996.108 4.802.969.387 4.326.347 5.229-.064 1.964-.891 2.068-3.54.185-4.688-.719-.438-4.737-.475-5.522-.05m12.237.072c-1.735 1.017-1.792 3.307-.113 4.552.667.494 10.72.634 11.713.163 1.899-.901 1.875-4.014-.038-4.813-1.056-.441-10.783-.358-11.562.098m16.379.097c-1.722 1.116-1.493 3.869.388 4.655.864.361 4.547.319 5.297-.06 1.574-.796 1.914-3.178.623-4.376-.921-.856-5.102-1.001-6.308-.219m17.073-.1c-1.798.955-1.753 3.621.079 4.651.95.534 16.874.454 17.803-.089 1.527-.894 1.599-3.387.127-4.437l-.544-.388-8.417-.037c-8.156-.035-8.436-.026-9.048.3m34.457-.114c-2.074.913-2.044 3.983.048 4.857.925.387 16.498.36 17.319-.029 1.862-.884 2.036-3.357.327-4.633-.589-.44-16.733-.618-17.694-.195m25.746.141c-1.721 1.143-1.603 3.692.214 4.638.962.501 22.634.501 23.596 0 1.324-.689 1.837-2.222 1.171-3.502-.801-1.538.233-1.42-12.868-1.471l-11.542-.045-.571.38m-129.905 5.828c-2.041.716-2.314 3.712-.435 4.768.946.532 4.933.547 5.782.022 1.744-1.078 1.661-3.767-.144-4.64-.814-.395-4.224-.493-5.203-.15m18.167.032c-2.216.977-2.236 4.09-.031 4.923.296.111 2.425.177 5.754.177h5.284l.625-.515c1.631-1.344 1.4-3.661-.449-4.501-.881-.4-10.305-.471-11.183-.084m18.064-.012c-2.066.769-2.401 4.962-.498 6.234 1.132.756 3.179.406 3.934-.673.348-.496.353-3.932.007-4.601-.464-.899-2.261-1.4-3.443-.96m10.754.029c-2.015.897-2.157 3.754-.237 4.774.948.504 10.954.469 11.78-.041 1.612-.997 1.614-3.357.002-4.551-.605-.449-10.593-.606-11.545-.182m16.759.125c-1.856.935-1.927 3.642-.123 4.677.745.427 4.815.408 5.627-.028 1.889-1.013 1.781-3.838-.179-4.681-1.201-.517-4.274-.498-5.325.032m24.364-.12c-1.977.859-2.087 3.848-.177 4.835.826.428 5.122.29 5.756-.184 1.835-1.372 1.506-4.013-.587-4.716-.832-.28-4.302-.234-4.992.065m9.992.004c-1.978.858-2.073 3.846-.155 4.839.813.42 5.115.276 5.742-.192 1.695-1.267 1.558-3.613-.264-4.531-.927-.468-4.342-.542-5.323-.116m24.15.064c-1.845.976-1.984 3.521-.253 4.635.778.501 4.952.57 5.718.094 1.972-1.226 1.816-3.936-.277-4.816-.886-.373-4.431-.313-5.188.087m14.167-.136c-2.102.838-2.272 3.627-.298 4.863.764.478 4.937.411 5.718-.092 1.795-1.155 1.595-3.693-.37-4.688-.615-.312-4.324-.372-5.05-.083M135 106.833c-2.793.112-3.897.995-3.596 2.878.306 1.914 1.114 2.372 4.179 2.372 3.284 0 4.214-.675 4.05-2.94-.142-1.954-1.135-2.45-4.633-2.31m22.465.112c-2.152.636-2.483 3.378-.578 4.79.726.537 4.913.524 5.786-.018 1.955-1.216 1.571-4.406-.58-4.809-.977-.184-3.962-.16-4.628.037m41.518-.112c-2.195.087-2.312.125-3.095 1-.915 1.024-.576 2.984.659 3.801.942.623 5.099.694 5.899.101 1.498-1.111 1.666-3.132.362-4.35-.558-.52-1.433-.647-3.825-.552m22.663.025c-2.096.435-2.74 3.292-1.044 4.627 1.069.841 4.889.964 6.126.197 1.552-.963 1.63-3.346.145-4.432-.489-.357-4.092-.627-5.227-.392m10.063-.012c-2.748.576-2.775 4.418-.036 5.156 1.292.348 4.283.158 5.055-.32 1.552-.963 1.63-3.346.145-4.432-.476-.348-4.085-.63-5.164-.404m25.791-.013c-2.392.096-2.771.256-3.325 1.4-1.345 2.777 1.399 4.565 5.871 3.826 2.063-.341 2.881-3.2 1.32-4.613-.592-.536-1.644-.703-3.866-.613m12.128.112c-2.513.746-2.408 4.332.148 5.042.816.227 3.617.231 4.424.007 2.12-.589 2.637-3.655.798-4.736-.723-.425-4.293-.633-5.37-.313m-83.868.214c-1.601 1.055-1.635 3.338-.068 4.508.903.674 5.126.639 6.029-.051 1.513-1.154 1.497-3.337-.034-4.376-.828-.563-5.107-.622-5.927-.081m-52.863 5.914c-2.076.903-1.94 4.17.202 4.898 1.016.345 4.842.206 5.44-.198 1.627-1.098 1.554-3.607-.132-4.562-.801-.454-4.568-.548-5.51-.138m18.436-.119c-2.032.763-2.392 3.482-.628 4.74.751.536 10.666.708 11.729.203 2.037-.966 2.016-3.975-.034-4.831-.563-.236-10.472-.336-11.067-.112m34.55.226c-1.75.866-1.837 3.315-.162 4.555.699.518 5.286.529 5.976.015 1.605-1.197 1.458-3.831-.261-4.646-.917-.435-4.622-.385-5.553.076m11.034-.118c-2.052.938-2.05 3.871.003 4.845.935.444 4.495.365 5.411-.119 1.664-.881 1.821-3.319.288-4.47-.662-.496-4.772-.681-5.702-.256m24.32-.067c-2.291.927-2.026 4.652.364 5.102 4.61.869 7.994-1.644 5.772-4.286-.758-.899-4.65-1.418-6.136-.816m10.132-.026c-1.848.555-2.338 3.275-.824 4.57 1.056.903 5.291.922 6.398.028 1.441-1.162 1.36-3.16-.173-4.307-.48-.359-4.462-.573-5.401-.291m23.867.202c-1.745.863-1.837 3.325-.172 4.569.702.523 5.174.52 5.882-.005 1.656-1.227 1.597-3.684-.11-4.593-.882-.469-4.633-.45-5.6.029m13.928-.029c-1.707.909-1.766 3.366-.11 4.593.708.525 5.18.528 5.882.005 1.672-1.249 1.572-3.722-.184-4.573-.983-.475-4.71-.492-5.588-.025m18.587-.192c-2.132.577-2.341 3.912-.308 4.896 1.032.5 4.948.426 5.66-.106 1.549-1.158 1.648-2.978.235-4.323l-.526-.5-2.364-.029c-1.301-.015-2.514.013-2.697.062m-148.75 6.252c-1.862.948-2.049 3.452-.342 4.593l.576.384 5.507-.048c5.425-.047 5.516-.053 6.04-.427 1.429-1.019 1.408-3.2-.043-4.307l-.629-.48-5.18-.048c-5.114-.047-5.19-.043-5.929.333m18.436-.206c-2.065.659-2.418 3.692-.564 4.845.795.494 5.293.426 6-.091 1.496-1.094 1.412-3.469-.16-4.513-.527-.35-4.383-.525-5.276-.241m28.633.144c-2.035.954-2.038 4.117-.003 4.852.813.294 4.699.222 5.376-.099 1.786-.847 1.881-3.36.176-4.623-.691-.512-4.542-.602-5.549-.13m17.233-.146c-1.874.578-2.493 2.945-1.148 4.387l.654.702 8.648.046 8.648.046.562-.379c1.638-1.103 1.593-3.549-.084-4.574-.544-.333-16.268-.541-17.28-.228m34.28-.042c-2.193.573-2.525 3.993-.48 4.963.809.384 16.845.376 17.622-.008 1.816-.9 1.9-3.259.164-4.625-.45-.354-16.074-.652-17.306-.33m38.218-.005c-1.859.302-2.552 3.085-1.116 4.488l.664.648 5.542.048c5.539.048 5.541.048 6.117-.334 1.642-1.092 1.654-3.484.022-4.499-.591-.367-9.428-.643-11.229-.351m-118.928 6.385c-1.942 1.185-1.495 4.217.71 4.818 4.047 1.103 7.281-.818 6.147-3.651-.581-1.453-5.12-2.225-6.857-1.167M198 134.667v5.5H199.833v-11H198v5.5m17.167-4.5v1H217v-2H215.167v1m-41.185-.209c-.096.252-.27.721-.386 1.042-.521 1.445-1.461 3.955-1.623 4.333-.098.23-.312.792-.475 1.25-.163.459-.528 1.452-.81 2.209l-.513 1.375h1.934l.466-1.338.465-1.338 2.343.046 2.343.046.451 1.25.451 1.25.936.05c1.093.059 1.079.111.448-1.577-.268-.718-1.064-2.881-1.769-4.806a817.198 817.198 0 0 0-1.426-3.875c-.242-.634-2.586-.565-2.835.083m36.185.959v.916H209V133.5h1.174l-.015 2.458c-.021 3.578.456 4.378 2.611 4.373 1.62-.004 1.73-.07 1.73-1.037 0-.783-.022-.827-.375-.73-2.048.562-2.292.26-2.292-2.836V133.5h2.667V131.833h-2.667V130h-1.666v.917m-52.417.029c-2.217.363-2.836 3.571-.934 4.842.744.497 4.825.573 5.726.107a2.615 2.615 0 0 0 .181-4.579c-.628-.387-3.541-.604-4.973-.37m18.495 2.613c.915 2.526 1.012 2.298-.963 2.239l-1.595-.048.67-1.75c.368-.963.749-1.959.845-2.214.222-.585.137-.731 1.043 1.773m8.002-1.66c-.277.12-.746.495-1.042.833l-.538.613v-1.512H181v8.334H182.667l.001-2.375c.001-3.465.335-4.239 1.902-4.416 1.891-.213 2.263.466 2.263 4.13v2.661h1.871l-.078-2.959c-.083-3.159-.216-3.812-.94-4.598-.859-.933-2.264-1.223-3.439-.711m7.394-.011c-1.232.396-2.141 1.502-2.141 2.605 0 .779 1.618.793 1.773.016.385-1.926 4.227-1.35 4.227.633 0 .085-1.039.182-2.308.217-2.621.072-3.255.342-3.787 1.609-1.171 2.793 3.132 4.686 5.47 2.407l.625-.609V140.167H197.167v-2.813c0-3.514-.048-3.751-.927-4.605-1.062-1.032-2.96-1.388-4.599-.861m28.442.092c-3.327 1.526-3.091 7.228.339 8.188 2.526.707 4.647-.442 5.154-2.793l.117-.542h-.896c-.872 0-.902.016-1.106.579-.407 1.126-1.609 1.65-2.719 1.185-1.735-.728-2.02-3.548-.495-4.904.954-.848 3.01-.224 3.278.995.1.456.147.479 1.021.479h.917l-.117-.535c-.521-2.369-3.244-3.684-5.493-2.652m8-.118c-1.673.62-2.375 2.134-1.587 3.425.399.655 1.107.969 3.135 1.388 1.846.382 2.203.55 2.2 1.039-.01 1.43-3.654 1.547-3.938.127-.098-.492-.13-.508-1.019-.508h-.918l.099.607c.49 3.019 6.777 3.457 7.436.518.421-1.873-.443-2.723-3.347-3.296-1.784-.352-2.144-.518-2.144-.99 0-1.176 2.912-1.285 3.465-.13.277.578 1.868.714 1.868.16 0-1.807-3.036-3.161-5.25-2.34m-27.75.13c0 .14.429 1.267 2.539 6.675.691 1.771.684 1.717.297 2.209-.392.498-1.235.795-1.898.669-.427-.082-.438-.063-.438.792v.875l1.077-.086c2.195-.176 2.707-.762 4.333-4.959 1.367-3.527 2.203-5.71 2.315-6.042.085-.254-.018-.292-.791-.292h-.889l-.511 1.375c-.281.757-.672 1.788-.869 2.292a24.61 24.61 0 0 0-.51 1.424c-.468 1.564-.557 1.427-2.359-3.632l-.52-1.459h-.888c-.488 0-.888.072-.888.159m15 4.008v4.167H217v-8.334H215.333V136m-75.969 1.163c-1.702 1.233-1.542 3.757.29 4.58 1.03.463 17.142.308 17.782-.17 1.701-1.27 1.558-3.641-.277-4.577-.617-.315-1.006-.329-8.877-.329h-8.232l-.686.496m56.136-.249c0 1.032-1.213 1.835-2.774 1.835-1.507.001-2.33-.974-1.382-1.638.341-.238 4.156-.419 4.156-.197" fill="#2c342c"/><path d="M271.125 88.623c.481.034 1.269.034 1.75 0 .481-.034.087-.061-.875-.061-.963 0-1.356.027-.875.061m.089 5.334c.531.033 1.356.033 1.834-.001s.044-.061-.965-.06c-1.008 0-1.399.028-.869.061m-136.506 12.832c.436.035 1.148.035 1.584 0 .435-.034.079-.062-.792-.062s-1.227.028-.792.062m24.334 0c.435.035 1.148.035 1.583 0 .435-.034.079-.062-.792-.062s-1.227.028-.791.062m28.75.001a15.48 15.48 0 0 0 1.75 0c.481-.034.087-.062-.875-.062-.963 0-1.357.028-.875.062m10.916-.001c.436.035 1.148.035 1.584 0 .435-.034.079-.062-.792-.062s-1.227.028-.792.062m24.334 0c.435.035 1.148.035 1.583 0 .435-.034.079-.062-.792-.062-.87 0-1.227.028-.791.062m10 0c.435.035 1.148.035 1.583 0 .435-.034.079-.062-.792-.062-.87 0-1.227.028-.791.062m24.166 0c.436.035 1.148.035 1.584 0 .435-.034.079-.062-.792-.062s-1.227.028-.792.062m14 0c.436.035 1.148.035 1.584 0 .435-.034.079-.062-.792-.062s-1.227.028-.792.062m-61.156 24.128c.001.55.032.755.069.455.037-.3.036-.75-.002-1s-.068-.005-.067.545m.012 4.583c0 1.146.027 1.615.059 1.042.033-.573.033-1.511 0-2.084-.032-.573-.059-.104-.059 1.042m-51.183.79c.531.033 1.356.033 1.833-.001.478-.033.044-.06-.964-.06s-1.399.028-.869.061" fill="#30342c"/><path d="M271.125 88.623c.481.034 1.269.034 1.75 0 .481-.034.087-.061-.875-.061-.963 0-1.356.027-.875.061m.089 5.334c.531.033 1.356.033 1.834-.001s.044-.061-.965-.06c-1.008 0-1.399.028-.869.061m-136.506 12.832c.436.035 1.148.035 1.584 0 .435-.034.079-.062-.792-.062s-1.227.028-.792.062m24.334 0c.435.035 1.148.035 1.583 0 .435-.034.079-.062-.792-.062s-1.227.028-.791.062m28.75.001a15.48 15.48 0 0 0 1.75 0c.481-.034.087-.062-.875-.062-.963 0-1.357.028-.875.062m10.916-.001c.436.035 1.148.035 1.584 0 .435-.034.079-.062-.792-.062s-1.227.028-.792.062m24.334 0c.435.035 1.148.035 1.583 0 .435-.034.079-.062-.792-.062-.87 0-1.227.028-.791.062m10 0c.435.035 1.148.035 1.583 0 .435-.034.079-.062-.792-.062-.87 0-1.227.028-.791.062m24.166 0c.436.035 1.148.035 1.584 0 .435-.034.079-.062-.792-.062s-1.227.028-.792.062m14 0c.436.035 1.148.035 1.584 0 .435-.034.079-.062-.792-.062s-1.227.028-.792.062m-61.156 24.128c.001.55.032.755.069.455.037-.3.036-.75-.002-1s-.068-.005-.067.545m.012 4.583c0 1.146.027 1.615.059 1.042.033-.573.033-1.511 0-2.084-.032-.573-.059-.104-.059 1.042m-51.183.79c.531.033 1.356.033 1.833-.001.478-.033.044-.06-.964-.06s-1.399.028-.869.061" fill="#30342c"/><path d="M271.125 88.623c.481.034 1.269.034 1.75 0 .481-.034.087-.061-.875-.061-.963 0-1.356.027-.875.061m.089 5.334c.531.033 1.356.033 1.834-.001s.044-.061-.965-.06c-1.008 0-1.399.028-.869.061m-136.506 12.832c.436.035 1.148.035 1.584 0 .435-.034.079-.062-.792-.062s-1.227.028-.792.062m24.334 0c.435.035 1.148.035 1.583 0 .435-.034.079-.062-.792-.062s-1.227.028-.791.062m28.75.001a15.48 15.48 0 0 0 1.75 0c.481-.034.087-.062-.875-.062-.963 0-1.357.028-.875.062m10.916-.001c.436.035 1.148.035 1.584 0 .435-.034.079-.062-.792-.062s-1.227.028-.792.062m24.334 0c.435.035 1.148.035 1.583 0 .435-.034.079-.062-.792-.062-.87 0-1.227.028-.791.062m10 0c.435.035 1.148.035 1.583 0 .435-.034.079-.062-.792-.062-.87 0-1.227.028-.791.062m24.166 0c.436.035 1.148.035 1.584 0 .435-.034.079-.062-.792-.062s-1.227.028-.792.062m14 0c.436.035 1.148.035 1.584 0 .435-.034.079-.062-.792-.062s-1.227.028-.792.062m-61.156 24.128c.001.55.032.755.069.455.037-.3.036-.75-.002-1s-.068-.005-.067.545m.012 4.583c0 1.146.027 1.615.059 1.042.033-.573.033-1.511 0-2.084-.032-.573-.059-.104-.059 1.042m-51.183.79c.531.033 1.356.033 1.833-.001.478-.033.044-.06-.964-.06s-1.399.028-.869.061" fill="#30342c"/><path d="M271.125 88.623c.481.034 1.269.034 1.75 0 .481-.034.087-.061-.875-.061-.963 0-1.356.027-.875.061m.089 5.334c.531.033 1.356.033 1.834-.001s.044-.061-.965-.06c-1.008 0-1.399.028-.869.061m-136.506 12.832c.436.035 1.148.035 1.584 0 .435-.034.079-.062-.792-.062s-1.227.028-.792.062m24.334 0c.435.035 1.148.035 1.583 0 .435-.034.079-.062-.792-.062s-1.227.028-.791.062m28.75.001a15.48 15.48 0 0 0 1.75 0c.481-.034.087-.062-.875-.062-.963 0-1.357.028-.875.062m10.916-.001c.436.035 1.148.035 1.584 0 .435-.034.079-.062-.792-.062s-1.227.028-.792.062m24.334 0c.435.035 1.148.035 1.583 0 .435-.034.079-.062-.792-.062-.87 0-1.227.028-.791.062m10 0c.435.035 1.148.035 1.583 0 .435-.034.079-.062-.792-.062-.87 0-1.227.028-.791.062m24.166 0c.436.035 1.148.035 1.584 0 .435-.034.079-.062-.792-.062s-1.227.028-.792.062m14 0c.436.035 1.148.035 1.584 0 .435-.034.079-.062-.792-.062s-1.227.028-.792.062m-61.156 24.128c.001.55.032.755.069.455.037-.3.036-.75-.002-1s-.068-.005-.067.545m.012 4.583c0 1.146.027 1.615.059 1.042.033-.573.033-1.511 0-2.084-.032-.573-.059-.104-.059 1.042m-51.183.79c.531.033 1.356.033 1.833-.001.478-.033.044-.06-.964-.06s-1.399.028-.869.061" fill="#30342c"/></g></svg>